<?xml version="1.0" encoding="UTF-8" standalone="no"?>
<svg
   xmlns:dc="http://purl.org/dc/elements/1.1/"
   xmlns:cc="http://creativecommons.org/ns#"
   xmlns:rdf="http://www.w3.org/1999/02/22-rdf-syntax-ns#"
   xmlns:svg="http://www.w3.org/2000/svg"
   xmlns="http://www.w3.org/2000/svg"
   viewBox="0 0 910.625 447.5"
   height="447.5"
   width="910.625"
   xml:space="preserve"
   version="1.1"
   id="svg4136"><metadata
     id="metadata4142"><rdf:RDF><cc:Work
         rdf:about=""><dc:format>image/svg+xml</dc:format><dc:type
           rdf:resource="http://purl.org/dc/dcmitype/StillImage" /><dc:title></dc:title></cc:Work></rdf:RDF></metadata><defs
     id="defs4140"><clipPath
       id="clipPath4150"
       clipPathUnits="userSpaceOnUse"><path
         id="path4152"
         d="m 0,0 728.5,0 0,358 L 0,358 0,0 Z" /></clipPath></defs><g
     transform="matrix(1.25,0,0,-1.25,0,447.5)"
     id="g4144"><g
       id="g4146"><g
         clip-path="url(#clipPath4150)"
         id="g4148"><g
           transform="translate(300.6855,244.7451)"
           id="g4154"><path
             id="path4156"
             style="fill:#2e9bdd;fill-opacity:1;fill-rule:nonzero;stroke:none"
             d="m 0,0 0,-47.821 c 0,-7.496 -2.086,-13.279 -6.257,-17.348 -4.172,-4.07 -8.856,-6.104 -15.61,-6.104 -6.755,0 -11.561,2.042 -15.733,6.128 -4.171,4.085 -6.257,9.86 -6.257,17.324 l 0,47.821 13.019,0 0,-47.821 c 0,-4.279 0.84,-7.432 2.522,-9.458 1.68,-2.027 3.393,-3.041 6.449,-3.041 3.147,0 4.769,0.966 6.418,2.896 1.651,1.93 2.477,5.131 2.477,9.603 L -12.972,0 0,0 Z" /></g><g
           transform="translate(358.623,174.4854)"
           id="g4158"><path
             id="path4160"
             style="fill:#2e9bdd;fill-opacity:1;fill-rule:nonzero;stroke:none"
             d="m 0,0 -12.974,0 -20.399,44.926 -0.275,-0.097 0,-44.829 -13.065,0 0,70.26 13.065,0 20.401,-44.878 0.273,0.097 0,44.781 L 0,70.26 0,0 Z" /></g><path
           id="path4162"
           style="fill:#2e9bdd;fill-opacity:1;fill-rule:nonzero;stroke:none"
           d="m 384.709,174.485 -12.974,0 0,70.26 12.974,0 0,-70.26 z" /><g
           transform="translate(418.002,192.436)"
           id="g4164"><path
             id="path4166"
             style="fill:#2e9bdd;fill-opacity:1;fill-rule:nonzero;stroke:none"
             d="m 0,0 0.504,-2.702 0.274,0 0.505,2.557 11.14,52.454 13.708,0 -18.659,-70.261 -13.57,0 -18.658,70.261 13.707,0 L 0,0 Z" /></g><g
           transform="translate(487.4609,205.3203)"
           id="g4168"><path
             id="path4170"
             style="fill:#2e9bdd;fill-opacity:1;fill-rule:nonzero;stroke:none"
             d="m 0,0 -22.417,0 0,-19.882 26.359,0 0,-10.953 -39.424,0 0,70.26 39.333,0 0,-10.955 -26.268,0 0,-17.516 L 0,10.954 0,0 Z" /></g><g
           transform="translate(514.4619,213.3789)"
           id="g4172"><path
             id="path4174"
             style="fill:#2e9bdd;fill-opacity:1;fill-rule:nonzero;stroke:none"
             d="m 0,0 8.711,0 c 2.658,0 4.676,0.852 6.051,2.558 1.375,1.704 2.062,4.133 2.062,7.287 0,3.215 -0.687,5.773 -2.062,7.672 -1.375,1.897 -3.378,2.847 -6.006,2.847 L 0,20.364 0,0 Z m 0,-10.954 0,-27.941 -13.019,0 0,70.213 21.775,0 c 6.571,0 11.728,-1.826 15.473,-5.477 3.744,-3.652 5.616,-8.727 5.616,-15.225 0,-3.668 -0.78,-6.828 -2.339,-9.482 -1.559,-2.654 -3.837,-4.77 -6.831,-6.346 3.423,-1.223 5.89,-3.249 7.404,-6.08 1.512,-2.831 2.27,-6.369 2.27,-10.616 l 0,-4.97 c 0,-1.93 0.213,-3.998 0.64,-6.201 0.428,-2.204 1.176,-3.805 2.247,-4.802 l 0,-1.014 -13.477,0 c -1.071,1.031 -1.742,2.704 -2.017,5.02 -0.276,2.316 -0.414,4.68 -0.414,7.093 l 0,4.777 c 0,3.507 -0.68,6.226 -2.039,8.156 -1.36,1.93 -3.308,2.895 -5.846,2.895 l -9.443,0 z" /></g><g
           transform="translate(585.8125,192.8218)"
           id="g4176"><path
             id="path4178"
             style="fill:#2e9bdd;fill-opacity:1;fill-rule:nonzero;stroke:none"
             d="m 0,0 c 0,2.734 -0.672,4.898 -2.018,6.49 -1.343,1.593 -3.711,3.161 -7.105,4.705 -6.937,2.541 -12.14,5.429 -15.609,8.662 -3.468,3.233 -5.204,7.761 -5.204,13.584 0,5.758 2.018,10.447 6.052,14.067 4.034,3.619 9.185,5.428 15.449,5.428 6.358,0 11.523,-2.019 15.496,-6.056 3.971,-4.038 5.897,-9.129 5.777,-15.273 l -0.093,-0.289 -12.652,0 c 0,3.216 -0.765,5.822 -2.292,7.817 -1.53,1.995 -3.685,2.992 -6.465,2.992 -2.598,0 -4.623,-0.829 -6.074,-2.485 -1.451,-1.658 -2.178,-3.74 -2.178,-6.249 0,-2.317 0.81,-4.222 2.431,-5.718 1.62,-1.496 4.43,-3.161 8.433,-4.995 6.327,-2.252 11.087,-5.108 14.281,-8.566 3.194,-3.458 4.791,-8.131 4.791,-14.017 0,-6.08 -1.925,-10.842 -5.776,-14.284 -3.851,-3.442 -8.971,-5.163 -15.358,-5.163 -6.358,0 -11.865,1.954 -16.527,5.863 -4.661,3.909 -6.915,9.514 -6.76,16.817 l 0.091,0.289 12.699,0 c 0,-4.343 0.872,-7.464 2.612,-9.362 1.742,-1.898 4.37,-2.846 7.885,-2.846 2.751,0 4.791,0.771 6.121,2.316 C -0.665,-4.729 0,-2.638 0,0" /></g><path
           id="path4180"
           style="fill:#2e9bdd;fill-opacity:1;fill-rule:nonzero;stroke:none"
           d="m 622.999,174.485 -12.974,0 0,70.26 12.974,0 0,-70.26 z" /><g
           transform="translate(674.124,233.7905)"
           id="g4182"><path
             id="path4184"
             style="fill:#2e9bdd;fill-opacity:1;fill-rule:nonzero;stroke:none"
             d="m 0,0 -15.036,0 0,-59.306 -13.019,0 0,59.306 -14.945,0 0,10.954 43,0 L 0,0 Z" /></g><g
           transform="translate(702.6914,262.5991)"
           id="g4186"><path
             id="path4188"
             style="fill:#2e9bdd;fill-opacity:1;fill-rule:nonzero;stroke:none"
             d="M 0,0 13.708,0 13.846,-0.289 2.431,-12.836 -8.067,-12.812 0,0 Z m 15.541,-57.279 -22.417,0 0,-19.882 26.359,0 0,-10.953 -39.424,0 0,70.26 39.333,0 0,-10.954 -26.268,0 0,-17.517 22.417,0 0,-10.954 z" /></g><g
           transform="translate(172.3257,160.4902)"
           id="g4190"><path
             id="path4192"
             style="fill:#2e9bdd;fill-opacity:1;fill-rule:nonzero;stroke:none"
             d="m 0,0 c -0.022,-25.593 -0.04,-58.587 -0.04,-58.681 0,-26.597 -21.638,-48.24 -48.233,-48.248 -0.157,0 -0.309,0.021 -0.465,0.025 l 0,10e-4 -0.018,0 -0.009,0 0,-10e-4 c -0.156,-0.004 -0.309,-0.025 -0.466,-0.025 -26.595,0.008 -48.233,21.651 -48.233,48.248 0,0.095 -0.019,33.103 -0.041,58.681 l -14.185,0 0.029,-43.837 c 0.009,-8.797 0.013,-14.74 0.013,-14.847 0,-34.423 28.015,-62.428 62.449,-62.428 0.15,0 0.298,0.009 0.447,0.01 0.15,-10e-4 0.297,-0.01 0.448,-0.01 34.434,0 62.448,28.005 62.448,62.428 0,0.107 0.005,6.05 0.013,14.847 L 14.185,0 0,0 Z" /></g><path
           id="path4194"
           style="fill:#2e9bdd;fill-opacity:1;fill-rule:nonzero;stroke:none"
           d="m 32.84,216.56 181.85,0 0,-14.016 -181.85,0 0,14.016 z" /><g
           transform="translate(269.8477,149.5937)"
           id="g4196"><path
             id="path4198"
             style="fill:#1b1615;fill-opacity:1;fill-rule:nonzero;stroke:none"
             d="m 0,0 0,-48.352 6.372,0 c 3.636,0 6.441,1.667 8.413,4.999 1.971,3.333 2.957,7.753 2.957,13.26 l 0,11.931 c 0,5.474 -0.986,9.87 -2.957,13.187 C 12.813,-1.657 10.008,0 6.372,0 L 0,0 Z m -13.065,-59.306 0,70.26 20.17,0 c 6.847,0 12.501,-2.725 16.963,-8.179 4.462,-5.453 6.693,-12.473 6.693,-21.063 l 0,-11.822 c 0,-8.59 -2.231,-15.604 -6.693,-21.04 -4.462,-5.438 -10.116,-8.156 -16.963,-8.156 l -20.17,0 z" /></g><g
           transform="translate(347.377,121.124)"
           id="g4200"><path
             id="path4202"
             style="fill:#1b1615;fill-opacity:1;fill-rule:nonzero;stroke:none"
             d="m 0,0 -22.417,0 0,-19.882 26.359,0 0,-10.953 -39.424,0 0,70.26 39.333,0 0,-10.955 -26.268,0 0,-17.516 L 0,10.954 0,0 Z" /></g><g
           transform="translate(397.7207,101.2422)"
           id="g4204"><path
             id="path4206"
             style="fill:#1b1615;fill-opacity:1;fill-rule:nonzero;stroke:none"
             d="m 0,0 22.748,0 0,-10.954 -35.813,0 0,70.26 L 0,59.306 0,0 Z" /></g><g
           transform="translate(439.2734,130.4365)"
           id="g4208"><path
             id="path4210"
             style="fill:#1b1615;fill-opacity:1;fill-rule:nonzero;stroke:none"
             d="m 0,0 0.274,0 11.141,30.112 14.165,0 -19.071,-45.263 0,-24.996 -13.019,0 0,25.864 -18.75,44.395 14.258,0 L 0,0 Z" /></g><g
           transform="translate(501.9678,135.3633)"
           id="g4212"><path
             id="path4214"
             style="fill:#1b1615;fill-opacity:1;fill-rule:nonzero;stroke:none"
             d="m 0,0 c 0,5.033 -0.887,8.831 -2.659,11.396 -1.773,2.566 -4.356,3.849 -7.747,3.849 -3.423,0 -5.992,-1.275 -7.702,-3.824 C -19.82,8.872 -20.676,5.066 -20.676,0 l 0,-19.842 c 0,-5.098 0.871,-8.921 2.614,-11.47 1.742,-2.548 4.309,-3.822 7.701,-3.822 3.362,0 5.929,1.274 7.702,3.822 C -0.887,-28.763 0,-24.94 0,-19.842 L 0,0 Z m 12.974,-19.837 c 0,-8.236 -2.126,-14.67 -6.373,-19.302 -4.249,-4.633 -9.902,-6.949 -16.962,-6.949 -7.059,0 -12.698,2.316 -16.916,6.949 -4.218,4.632 -6.326,11.066 -6.326,19.302 l 0,19.688 c 0,8.203 2.108,14.645 6.326,19.326 4.218,4.68 9.84,7.021 16.871,7.021 7.028,0 12.682,-2.341 16.961,-7.021 4.278,-4.681 6.419,-11.123 6.419,-19.326 l 0,-19.688 z" /></g><g
           transform="translate(572.9727,90.2881)"
           id="g4216"><path
             id="path4218"
             style="fill:#1b1615;fill-opacity:1;fill-rule:nonzero;stroke:none"
             d="m 0,0 -12.975,0 -20.398,44.927 -0.275,-0.098 0,-44.829 -13.065,0 0,70.261 13.065,0 20.401,-44.878 0.272,0.096 0,44.782 L 0,70.261 0,0 Z" /></g><g
           transform="translate(200.5806,160.4902)"
           id="g4220"><path
             id="path4222"
             style="fill:#1b1615;fill-opacity:1;fill-rule:nonzero;stroke:none"
             d="m 0,0 c -0.02,-25.455 -0.04,-58.424 -0.04,-58.722 0,-42.162 -34.307,-76.468 -76.517,-76.475 -0.146,0 -0.29,0.009 -0.436,0.01 l -0.018,0 -0.009,0 c -0.146,-10e-4 -0.29,-0.01 -0.436,-0.01 -42.211,0.007 -76.517,34.313 -76.517,76.475 0,0.303 -0.02,33.288 -0.041,58.722 l -14.087,0 c 0.02,-25.411 0.039,-58.378 0.039,-58.731 0,-49.931 40.631,-90.554 90.575,-90.554 0.161,0 0.319,0.011 0.48,0.012 0.162,-0.001 0.32,-0.012 0.481,-0.012 49.944,0 90.575,40.623 90.575,90.554 0,0.347 0.019,33.295 0.038,58.731 L 0,0 Z" /></g><g
           transform="translate(143.8984,160.4902)"
           id="g4224"><path
             id="path4226"
             style="fill:#1b1615;fill-opacity:1;fill-rule:nonzero;stroke:none"
             d="m 0,0 c -0.02,-26.023 -0.041,-58.128 -0.041,-58.227 0,-11.156 -9.038,-20.25 -20.178,-20.331 l 0,0.002 -0.105,-0.001 -0.106,0.001 0,-0.002 c -11.14,0.081 -20.178,9.175 -20.178,20.331 0,0.101 -0.021,32.196 -0.042,58.227 l -14.217,0 c 0.021,-26.03 0.041,-58.126 0.041,-58.227 0,-19.028 15.466,-34.512 34.488,-34.545 l 0,-10e-4 c 0.005,0 0.014,10e-4 0.014,10e-4 0.004,0 0.008,-10e-4 0.013,-10e-4 l 0,10e-4 c 19.022,0.033 34.488,15.517 34.488,34.545 0,0.099 0.02,32.205 0.041,58.227 L 0,0 Z" /></g><path
           id="path4228"
           style="fill:#1b1615;fill-opacity:1;fill-rule:nonzero;stroke:none"
           d="m 32.84,188.522 181.85,0 0,-14.016 -181.85,0 0,14.016 z" /><g
           transform="translate(183.4121,256.0176)"
           id="g4230"><path
             id="path4232"
             style="fill:#1b1615;fill-opacity:1;fill-rule:nonzero;stroke:none"
             d="m 0,0 c 0,0 5.858,-2.227 7.261,-4.197 0.912,-1.286 6.223,-2.792 6.223,-2.792 0,0 1.619,-0.114 3.73,-2.049 1.613,-1.477 2.129,-2.084 3.142,-2.371 l -53.803,0 c 0.167,0.874 0.218,2.334 -1.086,3.078 -0.856,0.478 -1.599,1.421 -2.562,1.884 -3.713,1.771 -4.118,1.121 -5.669,2.363 -0.873,0.643 -1.454,3.491 -1.454,3.491 0,0 6.787,6.69 8.086,8.382 1.633,2.113 2.272,2.956 3.005,3.997 5.105,0.479 10.463,1.4 12.304,2.449 0.523,0.314 0.998,0.593 1.449,0.857 0.581,-0.328 1.095,-0.628 1.541,-0.899 2.724,-1.614 9.58,-4.505 11.999,-6.426 C -3.41,5.818 0,0 0,0 m -143.984,5.454 c 1.847,0.764 5.92,-0.799 9.988,-0.057 6.216,1.128 15.086,4.234 18.074,5.576 2.714,1.185 7.562,5.84 9.062,7.075 1.476,1.249 3.029,1.606 3.029,1.606 0,0 1.801,-1.935 5.422,-5.14 3.634,-3.22 4.86,-4.712 6.126,-5.754 1.238,-1.05 2.755,-3.177 3.007,-4.027 0.998,-3.205 0.644,-8.531 0.644,-8.531 0,0 5.658,-2.006 7.472,-3.62 1.279,-1.137 2.35,-2.994 2.873,-3.991 l -57.924,0 c 0.145,0.962 0.211,3.097 -1.876,3.834 -1.523,0.643 -1.214,1.2 -4.431,2.314 -1.294,0.464 -2.02,0.999 -2.685,2.684 -0.641,1.692 -0.651,4.497 -0.651,4.497 0,0 0.289,2.892 1.87,3.534 m 84.833,12.137 c 1.273,-0.586 4.448,-1.957 7.894,-3.263 0.342,-0.9 0.594,-2.198 0.486,-4.005 -0.314,-4.519 -4.792,-10.13 -4.792,-10.13 0,0 2.265,-5.597 2.915,-6.411 0.637,-0.8 2.709,-2.47 3.408,-3.819 0.199,-0.399 0.451,-0.94 0.648,-1.372 l -12.305,0 c 0.203,1.68 -0.899,2.381 -1.195,2.671 -0.673,0.664 -1.257,1.977 -2.901,2.556 -5.748,2.048 -5.656,1.22 -7.315,2.549 -1.13,0.899 -3.982,2.791 -4.627,3.954 -0.642,1.164 -1.808,6.447 -1.829,10.958 0.011,2.728 -0.189,5.319 -0.378,6.94 5.298,0.914 13.65,2.228 19.991,-0.628 m 94.713,46.346 c 0,0 -0.292,0.528 -0.879,1.171 -0.582,0.657 -2.048,1.542 -2.755,2.234 -0.699,0.721 -1.54,1.842 -1.951,2.128 -0.398,0.299 -1.237,1.628 -1.624,1.935 -0.434,0.292 -0.903,2.462 -0.959,2.705 -0.044,0.229 -0.217,0.892 -0.867,1.235 -0.364,0.158 -1.369,0.821 -2.024,1.343 -0.633,0.535 -2.265,2.12 -2.265,2.12 0,0 -0.428,2.641 -1.06,4.04 -0.638,1.421 -0.895,1.949 -1.198,2.478 -0.28,0.535 -0.467,0.642 -0.622,1.47 0,0 -0.891,0.065 -1.715,-0.464 0,0 -1.696,1.292 -3.39,2.285 -1.71,1.006 -3.719,2.056 -4.545,2.22 -0.803,0.185 -1.905,0.821 -2.328,1.235 0,0 -1.203,0.057 -2.179,-0.107 -0.705,-0.093 -3.027,-0.329 -4.259,-0.514 -1.227,-0.164 -4.256,-0.672 -4.95,-0.721 -1.461,-0.1 -1.764,-0.214 -3.964,-0.628 0,0 -1.74,-0.307 -2.333,-0.536 -0.594,-0.235 -2.472,-0.964 -3.776,-1.128 -1.426,-0.171 -2.92,-0.178 -4.638,-0.457 -0.773,-0.135 -3.685,-1.299 -5.059,-1.62 -0.616,-0.15 -1.448,-0.25 -1.448,-0.25 0,0 0.279,-0.971 1.037,-1.15 0,0 -0.405,-0.87 -1.345,-1.334 -0.942,-0.486 -1.928,-0.886 -3.217,-1.364 -1.306,-0.45 -3.353,-1.271 -3.883,-1.692 0,0 0.409,-0.814 1.213,-1.249 0,0 0.195,-0.114 -0.913,-0.678 -1.128,-0.6 -3.671,-1.657 -4.824,-2.185 -1.193,-0.535 -2.8,-1.485 -3.593,-1.877 -1.119,-0.586 -1.231,-0.615 -2.304,-1.279 -1.05,-0.642 -0.512,-0.606 -0.512,-0.606 0,0 0.524,-0.115 1.27,-0.172 0.77,-0.057 1.182,-0.357 1.182,-0.357 0,0 0.081,-0.407 -0.457,-0.885 -0.525,-0.464 -1.296,-1.514 -3.107,-2.756 -0.902,-0.613 -1.685,-1.313 -2.675,-2.006 -0.998,-0.692 -2.005,-1.877 -2.363,-2.12 l 1.067,-0.935 -0.161,-0.735 c -0.461,-0.286 -1.037,-0.607 -1.767,-0.893 -0.827,-0.364 -7.883,-1.313 -16.044,-1.213 -13.626,0.185 -17.38,1.941 -24.319,2.256 -6.954,0.328 -12.11,-1.214 -18.456,-3.149 -1.246,-0.378 -2.226,-0.757 -2.967,-1.135 -2.667,-0.557 -5.361,-1.299 -7.826,-2.249 -8.829,-3.384 -24.238,-16.141 -28.551,-17.954 -4.254,-1.8 -6.651,-1.885 -9.673,-1.507 -3.016,0.372 -4.203,1.135 -4.203,1.135 0,0 -1.546,3.27 -3.314,4.605 -2.31,1.699 -7.996,3.712 -7.996,3.712 0,0 -0.992,-3.733 1.026,-7.331 2.424,-4.298 7.164,-4.027 8.875,-4.726 3.024,-1.214 10.233,-2.678 16.312,-0.236 5.457,2.192 10.99,5.825 14.931,8.039 3.923,2.198 10.214,4.112 15.513,4.704 -0.244,-0.921 -0.512,-1.82 -0.798,-2.62 -1.483,-4.512 -6.959,-14.071 -8.076,-15.663 -1.29,-1.87 -6.411,-8.074 -7.317,-8.831 -0.883,-0.771 -3.052,-1.627 -5.772,-2.127 -2.993,-0.557 -11.578,-1.421 -11.578,-1.421 0,0 -1.517,-7.674 -3.416,-12.357 -0.777,-1.906 -2.612,-5.697 -2.612,-5.697 0,0 3.222,-2.999 4.244,-6.761 0.503,-0.966 1.348,-2.548 2.009,-3.041 l 0,-13.323 0.014,0 0,-0.384 181.85,0 0,14.016 -0.005,0 c 0.339,1.065 0.831,3.476 -1.267,4.481 -2.715,1.292 -0.53,2.32 -6.833,4.712 -1.802,0.685 -4.808,1.649 -5.828,2.491 -1.016,0.821 -6.468,8.446 -9.178,11.658 -2.726,3.234 -8.286,10.616 -8.286,10.616 l -1.226,2.913 0.223,2.206 c 0.341,0.357 0.712,0.713 1.037,1.128 0.987,1.056 2.488,2.627 2.914,3.505 1.034,2.092 0.668,0.05 1.306,1.185 0.48,0.864 2.346,1.899 3.126,2.391 0.765,0.465 1.906,1.878 1.906,1.878 0,0 0.027,-0.842 0.346,-1.656 0,0 0.543,0.45 1.41,1.506 0.867,1.057 0.57,1.157 1.631,2.227 1.06,1.05 1.814,3.149 2.486,4.513 0.684,1.341 1.084,1.734 1.262,2.027 0,0 0.45,-1.078 0.746,-1.835 0,0 0.697,0.671 0.986,1.342 0.287,0.671 0.486,1.542 0.965,2.306 0.478,0.778 0.844,1.778 1.306,1.978 0.49,0.2 1.404,0.763 2.383,0.814 0.714,0.035 1.695,-0.372 2.585,-0.557 0.843,-0.207 1.244,0.185 1.823,-0.579 0.572,-0.77 1.353,-1.17 1.353,-1.17 0,0 0.012,0.121 0.714,0.471 0.713,0.364 0.754,0.35 1.414,0.821 0.652,0.478 0.547,0.714 1.044,1.185 0.541,0.464 0.844,0.992 1.06,1.884 0.246,0.865 -0.155,1.385 0.268,1.8 0.417,0.399 1.261,0.421 1.69,1.442 0.403,0.985 0.284,1.163 0.461,1.335 0.17,0.178 0.28,0.885 0.28,0.885 0,0 1.192,0.992 1.363,1.813 0.165,0.821 0.343,1.121 0.712,1.478 0,0 -0.309,1.185 -1.893,2.163" /></g></g></g></g></svg>